Coordinates
version=1
nRows=49
nColumns=12
inDegrees=yes

Units are S.I. units (second, meters, Newtons, ...)
Angles are in degrees

endheader
time	SC_y	SC_z	SC_x	AC_y	AC_z	AC_x	GH_y	GH_z	GH_yy	EL_x	PS_y
       0.0              -40.83        -0.8773           18.0          62.57          6.006          7.331         -136.7          20.95         -131.3          65.16          102.7
   0.04749              -40.84        -0.8748           18.0          62.57          6.004          7.329         -136.7          20.96         -131.3          65.17          102.7
   0.09498              -40.84        -0.8722           18.0          62.57          6.002          7.328         -136.6          20.97         -131.3          65.17          102.7
    0.1425              -40.84        -0.8695           18.0          62.57            6.0          7.326         -136.6          20.97         -131.3          65.18          102.7
      0.19              -40.84        -0.8665           18.0          62.57          5.997          7.324         -136.5          20.98         -131.2          65.18          102.7
    0.2374              -40.84        -0.8634           18.0          62.57          5.995          7.322         -136.5          20.99         -131.2          65.18          102.7
    0.2849              -40.84        -0.8601           18.0          62.57          5.992           7.32         -136.5           21.0         -131.2          65.19          102.7
    0.3324              -40.84        -0.8565           18.0          62.57          5.989          7.318         -136.4          21.01         -131.2          65.19          102.7
    0.3799              -40.84        -0.8527           18.0          62.57          5.986          7.315         -136.3          21.03         -131.1           65.2          102.7
    0.4274              -40.84        -0.8486           18.0          62.57          5.983          7.312         -136.3          21.04         -131.1          65.21          102.6
    0.4749              -40.84        -0.8442           18.0          62.57          5.979           7.31         -136.2          21.05         -131.0          65.21          102.6
    0.5224              -40.84        -0.8394           18.0          62.57          5.975          7.307         -136.2          21.07         -131.0          65.22          102.6
    0.5699              -40.84        -0.8343           18.0          62.57          5.971          7.303         -136.1          21.08         -131.0          65.23          102.6
    0.6173              -40.84        -0.8288          18.01          62.57          5.966            7.3         -136.0           21.1         -130.9          65.23          102.6
    0.6648              -40.85        -0.8228          18.01          62.57          5.961          7.296         -135.9          21.12         -130.8          65.24          102.6
    0.7123              -40.85        -0.8163          18.01          62.57          5.956          7.292         -135.8          21.14         -130.8          65.25          102.6
    0.7598              -40.85        -0.8093          18.01          62.57           5.95          7.287         -135.7          21.16         -130.7          65.26          102.6
    0.8073              -40.85        -0.8016          18.01          62.57          5.944          7.283         -135.6          21.19         -130.7          65.27          102.5
    0.8548              -40.85        -0.7932          18.01          62.57          5.937          7.277         -135.5          21.21         -130.6          65.28          102.5
    0.9023              -40.85         -0.784          18.01          62.57           5.93          7.271         -135.4          21.24         -130.5           65.3          102.5
    0.9498              -40.85         -0.774          18.01          62.57          5.921          7.265         -135.2          21.27         -130.4          65.31          102.5
    0.9972              -40.86        -0.7629          18.01          62.57          5.912          7.258         -135.1          21.31         -130.3          65.33          102.5
     1.045              -40.86        -0.7506          18.01          62.57          5.902           7.25         -134.9          21.35         -130.2          65.34          102.4
     1.092              -40.86         -0.737          18.01          62.57          5.891          7.241         -134.7          21.39         -130.1          65.36          102.4
      1.14              -40.86         -0.722          18.01          62.57          5.878          7.232         -134.5          21.44         -129.9          65.38          102.4
     1.187              -40.87        -0.7051          18.02          62.57          5.865          7.221         -134.2          21.49         -129.8          65.41          102.4
     1.235              -40.87        -0.6863          18.02          62.57          5.849          7.209         -134.0          21.55         -129.6          65.43          102.3
     1.282              -40.88         -0.665          18.02          62.57          5.832          7.196         -133.7          21.62         -129.4          65.46          102.3
      1.33              -40.88        -0.6411          18.02          62.57          5.812           7.18         -133.3          21.69         -129.2           65.5          102.2
     1.377              -40.88        -0.6138          18.02          62.57           5.79          7.163         -132.9          21.78         -128.9          65.54          102.2
     1.425              -40.89        -0.5828          18.03          62.58          5.764          7.143         -132.5          21.88         -128.7          65.58          102.1
     1.472               -40.9        -0.5471          18.03          62.58          5.735           7.12         -132.0          21.99         -128.3          65.63          102.0
      1.52              -40.91         -0.506          18.03          62.58          5.701          7.094         -131.4          22.12         -128.0          65.69          101.9
     1.567              -40.91        -0.4581          18.04          62.58          5.662          7.064         -130.7          22.27         -127.5          65.75          101.8
     1.615              -40.93        -0.4022          18.04          62.58          5.615          7.028         -129.9          22.44         -127.0          65.83          101.7
     1.662              -40.94        -0.3362          18.05          62.58          5.561          6.986         -128.9          22.65         -126.4          65.93          101.6
      1.71              -40.95        -0.2578          18.06          62.59          5.497          6.936         -127.8           22.9         -125.7          66.04          101.4
     1.757              -40.97        -0.1638          18.06          62.59          5.419          6.876         -126.5          23.19         -124.9          66.17          101.2
     1.805              -40.99       -0.05014          18.07          62.59          5.326          6.804         -124.8          23.55         -123.8          66.33          101.0
     1.852              -41.02        0.08875          18.09           62.6          5.212          6.715         -122.9          23.99         -122.6          66.52          100.7
       1.9              -41.05         0.2602           18.1           62.6          5.071          6.606         -120.4          24.52         -121.0          66.77          100.4
     1.947              -41.09         0.4739          18.12          62.61          4.895           6.47         -117.3           25.2         -119.1          67.07          99.93
     1.994              -41.14         0.7432          18.14          62.62          4.673          6.298         -113.5          26.04         -116.6          67.44          99.38
     2.042              -41.21          1.085          18.17          62.63          4.392           6.08         -108.6          27.12         -113.5          67.93          98.68
     2.089              -41.29          1.524          18.21          62.64          4.032          5.801         -102.3           28.5         -109.5          68.54          97.78
     2.137               -41.4          2.086          18.26          62.66          3.569          5.443         -94.24          30.26         -104.4          69.33          96.63
     2.184              -41.54          2.804          18.32          62.69          2.978          4.985         -83.95          32.52         -97.87          70.34          95.15
     2.232              -41.71          3.707           18.4          62.72          2.236           4.41         -71.01          35.36         -89.66          71.61           93.3
     2.279              -41.92          4.808           18.5          62.75          1.331          3.709         -55.24          38.82         -79.65          73.16          91.04
